<?xml version="1.0" encoding="UTF-8"?>
<svg id="Layer_1" xmlns="http://www.w3.org/2000/svg" version="1.1" viewBox="0 0 211.75 90.71">
  <!-- Generator: Adobe Illustrator 29.5.1, SVG Export Plug-In . SVG Version: 2.1.0 Build 141)  -->
  <defs>
    <style>
      .st0, .st1 {
        fill: #fff;
      }

      .st2 {
        fill-rule: evenodd;
      }

      .st2, .st3 {
        fill: #a09072;
      }

      .st4 {
        fill: #9f8f72;
      }

      .st1 {
        stroke: #a09072;
        stroke-miterlimit: 10;
        stroke-width: 2px;
      }
    </style>
  </defs>
  <rect class="st1" x="30.93" y="36.24" width="48.26" height="27.98" rx="5.39" ry="5.39" transform="translate(4.84 105.29) rotate(-90)"/>
  <polygon class="st0" points="70.29 43.51 67.54 45.26 67.54 67.45 70.29 65.43 70.29 43.51"/>
  <g id="Rectangle_4">
    <rect class="st3" x="49.68" y="52.57" width="30.09" height="13.32" rx="4.58" ry="4.58" transform="translate(-22.92 63.11) rotate(-45)"/>
  </g>
  <g id="Shape_1">
    <polygon class="st3" points="88.2 31.66 82.45 31.66 85.86 19.94 73.29 34.64 78.29 34.64 73.93 47.21 88.2 31.66"/>
  </g>
  <g id="Rectangle_41" data-name="Rectangle_4">
    <path class="st2" d="M57.47,31.02h-4.9c-.68,0-1.23.55-1.23,1.23s.55,1.23,1.23,1.23h4.9c.68,0,1.23-.55,1.23-1.23s-.55-1.23-1.23-1.23Z"/>
  </g>
  <g id="Rectangle_2">
    <rect class="st3" x="54.03" y="49.06" width="5.7" height="5.7" transform="translate(-20.09 54.22) rotate(-44.1)"/>
  </g>
  <g>
    <path class="st3" d="M51.73,44.76h-1.66v-4.8c0-.18,0-.37.01-.58,0-.21.01-.39.02-.55-.09.1-.18.19-.25.26-.08.08-.16.15-.25.22l-.99.79-.85-1.05,2.51-2.01h1.47v7.71Z"/>
    <path class="st3" d="M55.19,36.94c.58,0,1.04.21,1.38.63s.5,1.01.5,1.78-.16,1.38-.49,1.8c-.32.42-.79.63-1.39.63-.56,0-1.01-.21-1.34-.64s-.5-1.02-.5-1.79.16-1.36.48-1.78c.32-.42.78-.63,1.37-.63ZM55.21,37.98c-.21,0-.36.12-.46.36s-.15.58-.15,1.03.05.77.15,1.02.25.37.45.37c.22,0,.37-.12.46-.37.09-.25.14-.59.14-1.02s-.04-.78-.13-1.03c-.09-.24-.24-.37-.46-.37ZM60.69,37.05l-4.27,7.71h-1.25l4.27-7.71h1.25ZM60.67,40.01c.58,0,1.03.21,1.37.63.33.42.5,1.01.5,1.78s-.16,1.38-.48,1.8c-.32.42-.79.63-1.4.63-.56,0-1.01-.21-1.34-.63-.33-.42-.5-1.02-.5-1.8s.16-1.36.48-1.78c.32-.42.78-.63,1.37-.63ZM60.68,41.04c-.2,0-.35.12-.45.36s-.15.58-.15,1.03.05.78.14,1.03c.09.24.24.37.45.37s.37-.12.46-.37c.09-.24.14-.59.14-1.03s-.05-.78-.14-1.03c-.09-.24-.24-.37-.46-.37Z"/>
  </g>
  <g>
    <path class="st4" d="M86.49,70.92c-1.51,0-2.96-.21-4.35-.63-1.39-.42-2.51-.97-3.35-1.64l1.48-3.42c.79.6,1.74,1.09,2.85,1.47,1.11.38,2.23.58,3.37.58.86,0,1.56-.09,2.09-.28.53-.19.92-.43,1.17-.74.25-.31.38-.67.38-1.08,0-.52-.2-.94-.59-1.25s-.92-.56-1.57-.76c-.66-.2-1.37-.38-2.14-.56-.77-.18-1.55-.39-2.33-.64-.78-.25-1.5-.59-2.15-1.01-.66-.42-1.18-.97-1.56-1.65-.39-.68-.58-1.54-.58-2.57,0-1.12.29-2.15.86-3.07.57-.93,1.45-1.66,2.62-2.21,1.18-.55,2.65-.83,4.43-.83,1.18,0,2.36.15,3.51.45s2.17.73,3.03,1.29l-1.37,3.42c-.84-.5-1.71-.88-2.61-1.14-.9-.25-1.76-.38-2.58-.38s-1.55.1-2.07.29c-.52.2-.9.46-1.14.8-.24.34-.36.71-.36,1.12,0,.52.2.94.59,1.26.39.32.92.57,1.56.74s1.36.35,2.15.53,1.57.4,2.34.66c.77.26,1.48.59,2.13,1,.65.4,1.17.94,1.58,1.63.4.68.61,1.53.61,2.54,0,1.1-.29,2.11-.88,3.03-.58.92-1.47,1.65-2.65,2.21s-2.67.84-4.44.84Z"/>
    <path class="st4" d="M94.08,58.86v-3.36h10.04v3.36h-10.04ZM101.73,70.81c-1.71,0-3.03-.45-3.98-1.36-.95-.91-1.43-2.26-1.43-4.05v-13.23h4.23v13.15c0,.64.16,1.13.47,1.49.31.36.74.53,1.28.53.68,0,1.26-.19,1.72-.56l1.1,3.08c-.41.32-.92.56-1.52.72-.6.16-1.23.24-1.87.24Z"/>
    <path class="st4" d="M110.64,70.81c-1.11,0-2.07-.2-2.88-.6-.81-.4-1.43-.95-1.87-1.64s-.66-1.47-.66-2.33.21-1.66.63-2.34c.42-.68,1.09-1.21,2.01-1.58s2.12-.56,3.61-.56h3.82v2.52h-3.39c-.99,0-1.67.17-2.03.5-.37.34-.55.76-.55,1.26,0,.56.21,1,.63,1.33.42.33.99.49,1.71.49s1.36-.17,1.93-.5.96-.85,1.2-1.54l.65,2.05c-.31.93-.86,1.66-1.67,2.17-.81.51-1.85.77-3.12.77ZM115.05,70.58v-2.94l-.27-.64v-5.27c0-.93-.27-1.66-.82-2.19-.55-.52-1.39-.79-2.52-.79-.77,0-1.53.13-2.28.38-.74.25-1.39.59-1.92,1.02l-1.48-3.06c.79-.6,1.74-1.05,2.85-1.36,1.11-.31,2.24-.46,3.39-.46,2.21,0,3.92.54,5.14,1.63,1.22,1.08,1.83,2.78,1.83,5.08v8.61h-3.93Z"/>
    <path class="st4" d="M123.53,76.25c-.74,0-1.47-.12-2.21-.36-.74-.24-1.35-.58-1.83-1.01l1.53-3.14c.32.32.7.56,1.12.73.42.17.85.25,1.28.25.57,0,1.04-.14,1.39-.43s.67-.77.96-1.44l.75-1.85.32-.48,5.22-13.01h4.01l-6.54,16.01c-.47,1.23-1,2.19-1.6,2.87-.6.68-1.27,1.16-1.99,1.44s-1.53.42-2.41.42ZM126.01,71.17l-6.44-15.67h4.31l5.03,12.65-2.91,3.03Z"/>
    <path class="st4" d="M145.64,70.92c-1.49,0-2.86-.25-4.12-.76-1.26-.5-2.35-1.21-3.29-2.13-.93-.92-1.66-1.99-2.17-3.22-.51-1.23-.77-2.58-.77-4.04s.26-2.83.77-4.05c.51-1.22,1.23-2.29,2.17-3.21.93-.92,2.02-1.63,3.27-2.13,1.25-.5,2.62-.76,4.11-.76s2.86.25,4.11.74c1.25.5,2.34,1.2,3.27,2.12.93.92,1.66,1.99,2.17,3.22.51,1.23.77,2.59.77,4.07s-.26,2.81-.77,4.05c-.51,1.24-1.23,2.32-2.17,3.24s-2.02,1.62-3.27,2.12c-1.25.5-2.61.74-4.08.74ZM145.61,67.08c.84,0,1.62-.15,2.33-.46.71-.31,1.33-.75,1.87-1.32.54-.57.96-1.23,1.25-1.99s.44-1.6.44-2.54-.15-1.78-.44-2.54-.71-1.42-1.25-1.99c-.54-.57-1.16-1.01-1.87-1.32-.71-.31-1.49-.46-2.33-.46s-1.62.15-2.34.46-1.34.75-1.87,1.32-.94,1.23-1.24,1.99c-.3.76-.44,1.6-.44,2.54s.15,1.78.44,2.54c.3.76.71,1.42,1.24,1.99s1.15,1.01,1.87,1.32,1.5.46,2.34.46Z"/>
    <path class="st4" d="M156.89,70.58v-15.08h4.01v4.18l-.75-1.26c.52-1.01,1.27-1.79,2.24-2.33.97-.54,2.07-.81,3.31-.81,1.15,0,2.18.24,3.08.71.91.48,1.62,1.21,2.14,2.19s.78,2.24.78,3.77v8.64h-4.2v-7.96c0-1.21-.26-2.11-.77-2.69-.51-.58-1.23-.87-2.17-.87-.66,0-1.26.15-1.79.45s-.94.74-1.24,1.32c-.3.58-.44,1.35-.44,2.3v7.46h-4.2Z"/>
  </g>
</svg>